<svg width="42" height="42" viewBox="0 0 42 42" fill="none" xmlns="http://www.w3.org/2000/svg">
<path d="M20.9998 21C20.0395 22.8641 18.7521 24.5404 17.1988 25.949C16.2199 26.9282 14.9726 27.5951 13.6147 27.8653C12.2568 28.1356 10.8492 27.9971 9.56999 27.4674C8.29079 26.9376 7.19741 26.0404 6.42815 24.8892C5.65889 23.738 5.24829 22.3846 5.24829 21C5.24829 19.6154 5.65889 18.262 6.42815 17.1108C7.19741 15.9596 8.29079 15.0624 9.56999 14.5326C10.8492 14.0029 12.2568 13.8644 13.6147 14.1347C14.9726 14.4049 16.2199 15.0718 17.1988 16.051C18.7521 17.4596 20.0395 19.1359 20.9998 21ZM20.9998 21C21.9601 19.1359 23.2475 17.4596 24.8008 16.051C25.7797 15.0718 27.0269 14.4049 28.3849 14.1347C29.7428 13.8644 31.1504 14.0029 32.4296 14.5326C33.7088 15.0624 34.8022 15.9596 35.5714 17.1108C36.3407 18.262 36.7513 19.6154 36.7513 21C36.7513 22.3846 36.3407 23.738 35.5714 24.8892C34.8022 26.0404 33.7088 26.9376 32.4296 27.4674C31.1504 27.9971 29.7428 28.1356 28.3849 27.8653C27.0269 27.5951 25.7797 26.9282 24.8008 25.949C23.2475 24.5404 21.9601 22.8641 20.9998 21Z" stroke="currentColor" stroke-width="3.75" stroke-linecap="round" stroke-linejoin="round"/>
</svg>
