<svg width="138" height="32" viewBox="0 0 138 32" fill="none" xmlns="http://www.w3.org/2000/svg">
<rect x="106" width="32" height="32" rx="16" fill="#E4E7EB"/>
<path d="M122.492 22.1562C121.695 22.1562 120.982 22.0208 120.352 21.75C119.721 21.4792 119.227 21.1016 118.867 20.6172C118.508 20.1276 118.32 19.5677 118.305 18.9375H120.352C120.372 19.2344 120.477 19.4974 120.664 19.7266C120.857 19.9505 121.112 20.125 121.43 20.25C121.747 20.375 122.102 20.4375 122.492 20.4375C122.904 20.4375 123.271 20.3672 123.594 20.2266C123.922 20.0807 124.177 19.8802 124.359 19.625C124.542 19.3698 124.633 19.0781 124.633 18.75C124.633 18.4115 124.539 18.1094 124.352 17.8438C124.164 17.5781 123.893 17.3724 123.539 17.2266C123.185 17.0755 122.768 17 122.289 17H121.273V15.4375H122.289C122.685 15.4375 123.036 15.3698 123.344 15.2344C123.656 15.0938 123.898 14.8984 124.07 14.6484C124.242 14.3932 124.326 14.1042 124.32 13.7812C124.326 13.4688 124.253 13.1927 124.102 12.9531C123.956 12.7083 123.745 12.5208 123.469 12.3906C123.193 12.2552 122.872 12.1875 122.508 12.1875C122.154 12.1875 121.823 12.2526 121.516 12.3828C121.214 12.5078 120.969 12.6875 120.781 12.9219C120.599 13.1562 120.503 13.4271 120.492 13.7344H118.539C118.555 13.1094 118.737 12.5547 119.086 12.0703C119.44 11.5859 119.917 11.2083 120.516 10.9375C121.12 10.6667 121.789 10.5312 122.523 10.5312C123.268 10.5312 123.927 10.6719 124.5 10.9531C125.073 11.2292 125.516 11.6068 125.828 12.0859C126.141 12.5651 126.294 13.0938 126.289 13.6719C126.294 14.0885 126.211 14.4661 126.039 14.8047C125.867 15.1432 125.625 15.4245 125.312 15.6484C125 15.8724 124.638 16.026 124.227 16.1094V16.2031C124.753 16.276 125.203 16.4323 125.578 16.6719C125.953 16.9062 126.237 17.2109 126.43 17.5859C126.622 17.9609 126.716 18.3854 126.711 18.8594C126.716 19.4844 126.536 20.0495 126.172 20.5547C125.812 21.0547 125.31 21.4479 124.664 21.7344C124.023 22.0156 123.299 22.1562 122.492 22.1562Z" fill="#B4B9C2"/>
<path d="M32 16H53" stroke="#D0D4DB"/>
<path d="M85 16H106" stroke="#D0D4DB"/>
<rect x="53" width="32" height="32" rx="16" fill="#874FFF"/>
<path d="M65.1172 20.5312L69.1172 16.6719C69.5495 16.2396 69.8828 15.8854 70.1172 15.6094C70.3568 15.3281 70.5391 15.0521 70.6641 14.7812C70.7891 14.5052 70.8516 14.2135 70.8516 13.9062C70.8516 13.5625 70.7682 13.2604 70.6016 13C70.4349 12.7396 70.2031 12.5391 69.9062 12.3984C69.6146 12.2578 69.2839 12.1875 68.9141 12.1875C68.5286 12.1875 68.1901 12.2656 67.8984 12.4219C67.612 12.5729 67.3906 12.7917 67.2344 13.0781C67.0781 13.3594 67.0026 13.6875 67.0078 14.0625H65.0703C65.0651 13.3594 65.2266 12.7422 65.5547 12.2109C65.8828 11.6745 66.3385 11.2604 66.9219 10.9688C67.5104 10.6771 68.1797 10.5312 68.9297 10.5312C69.6901 10.5312 70.362 10.6719 70.9453 10.9531C71.5339 11.2344 71.9896 11.625 72.3125 12.125C72.6406 12.6198 72.8047 13.1823 72.8047 13.8125C72.8047 14.25 72.7188 14.6719 72.5469 15.0781C72.3802 15.4844 72.0938 15.9349 71.6875 16.4297C71.2812 16.9193 70.7057 17.5156 69.9609 18.2188L67.9453 20.2188V20.2969H72.9766V22H65.1172V20.5312Z" fill="white"/>
<rect x="0.5" y="0.5" width="31" height="31" rx="15.5" fill="#F3EDFF"/>
<rect x="0.5" y="0.5" width="31" height="31" rx="15.5" stroke="#874FFF"/>
<path d="M17.8594 22H15.8125V12.6719H15.75L13.1094 14.3594V12.5L15.9062 10.6875H17.8594V22Z" fill="#874FFF"/>
</svg>
