<svg width="85" height="32" viewBox="0 0 85 32" fill="none" xmlns="http://www.w3.org/2000/svg">
<rect x="0.5" y="0.5" width="31" height="31" rx="15.5" fill="#F3EDFF"/>
<rect x="0.5" y="0.5" width="31" height="31" rx="15.5" stroke="#874FFF"/>
<path d="M17.8594 22H15.8125V12.6719H15.75L13.1094 14.3594V12.5L15.9062 10.6875H17.8594V22Z" fill="#874FFF"/>
<rect x="53" width="32" height="32" rx="16" fill="#874FFF"/>
<path d="M65.1172 20.5312L69.1172 16.6719C69.5495 16.2396 69.8828 15.8854 70.1172 15.6094C70.3568 15.3281 70.5391 15.0521 70.6641 14.7812C70.7891 14.5052 70.8516 14.2135 70.8516 13.9062C70.8516 13.5625 70.7682 13.2604 70.6016 13C70.4349 12.7396 70.2031 12.5391 69.9062 12.3984C69.6146 12.2578 69.2839 12.1875 68.9141 12.1875C68.5286 12.1875 68.1901 12.2656 67.8984 12.4219C67.612 12.5729 67.3906 12.7917 67.2344 13.0781C67.0781 13.3594 67.0026 13.6875 67.0078 14.0625H65.0703C65.0651 13.3594 65.2266 12.7422 65.5547 12.2109C65.8828 11.6745 66.3385 11.2604 66.9219 10.9688C67.5104 10.6771 68.1797 10.5312 68.9297 10.5312C69.6901 10.5312 70.362 10.6719 70.9453 10.9531C71.5339 11.2344 71.9896 11.625 72.3125 12.125C72.6406 12.6198 72.8047 13.1823 72.8047 13.8125C72.8047 14.25 72.7188 14.6719 72.5469 15.0781C72.3802 15.4844 72.0938 15.9349 71.6875 16.4297C71.2812 16.9193 70.7057 17.5156 69.9609 18.2188L67.9453 20.2188V20.2969H72.9766V22H65.1172V20.5312Z" fill="white"/>
<path d="M32 16H53" stroke="#D0D4DB"/>
</svg>
