<svg width="20" height="20" viewBox="0 0 20 20" fill="none" xmlns="http://www.w3.org/2000/svg">
<path d="M16.25 2.03125H5.625C5.0034 2.03125 4.40726 2.27818 3.96772 2.71772C3.52818 3.15726 3.28125 3.7534 3.28125 4.375V17.5C3.28125 17.6243 3.33064 17.7435 3.41854 17.8315C3.50645 17.9194 3.62568 17.9688 3.75 17.9688H15C15.1243 17.9688 15.2435 17.9194 15.3315 17.8315C15.4194 17.7435 15.4688 17.6243 15.4688 17.5C15.4688 17.3757 15.4194 17.2565 15.3315 17.1685C15.2435 17.0806 15.1243 17.0312 15 17.0312H4.21875V16.875C4.21875 16.502 4.36691 16.1444 4.63063 15.8806C4.89435 15.6169 5.25204 15.4688 5.625 15.4688H16.25C16.3743 15.4688 16.4935 15.4194 16.5815 15.3315C16.6694 15.2435 16.7188 15.1243 16.7188 15V2.5C16.7188 2.37568 16.6694 2.25645 16.5815 2.16854C16.4935 2.08064 16.3743 2.03125 16.25 2.03125ZM9.21875 2.96875H13.2812V9.0625L11.5305 7.75C11.4493 7.68915 11.3506 7.65625 11.2492 7.65625C11.1478 7.65625 11.0491 7.68915 10.968 7.75L9.21875 9.0625V2.96875ZM15.7812 14.5312H5.625C5.11776 14.5305 4.6241 14.6951 4.21875 15V4.375C4.21875 4.00204 4.36691 3.64435 4.63063 3.38063C4.89435 3.11691 5.25204 2.96875 5.625 2.96875H8.28125V10C8.28125 10.0871 8.30549 10.1724 8.35126 10.2464C8.39702 10.3205 8.46251 10.3803 8.54037 10.4193C8.61823 10.4582 8.7054 10.4747 8.7921 10.4669C8.8788 10.459 8.96161 10.4272 9.03125 10.375L11.25 8.71094L13.4695 10.375C13.5392 10.427 13.6219 10.4586 13.7085 10.4663C13.7951 10.474 13.8821 10.4575 13.9598 10.4186C14.0375 10.3797 14.1029 10.3199 14.1486 10.246C14.1944 10.1721 14.2186 10.0869 14.2188 10V2.96875H15.7812V14.5312Z" fill="currentColor"/>
</svg>
