<svg width="32" height="32" viewBox="0 0 32 32" fill="none" xmlns="http://www.w3.org/2000/svg">
<g clip-path="url(#clip0_1114_17116)">
<path d="M28 16C28 18.4759 27.2502 20.7767 25.9652 22.6876C23.8106 25.8918 20.1515 28 16 28C11.8485 28 8.18936 25.8918 6.03479 22.6876C4.74983 20.7767 4 18.4759 4 16C4 9.37258 9.37258 4 16 4C22.6274 4 28 9.37258 28 16Z" fill="#D0D4DB" stroke="#D0D4DB" stroke-width="2.28571"/>
<path d="M18.6681 12.0015C18.6681 13.4743 17.4742 14.6682 16.0015 14.6682C14.5287 14.6682 13.3348 13.4743 13.3348 12.0015C13.3348 10.5287 14.5287 9.33484 16.0015 9.33484C17.4742 9.33484 18.6681 10.5287 18.6681 12.0015Z" fill="#EEF1F5" stroke="#EEF1F5" stroke-width="2"/>
<path d="M20.0006 20H12.0006C9.58492 20 7.54436 21.606 6.8884 23.8086C9.08922 26.3744 12.3551 28 16.0006 28C19.6461 28 22.912 26.3744 25.1128 23.8086C24.4568 21.606 22.4163 20 20.0006 20Z" fill="#EEF1F5" stroke="#EEF1F5" stroke-width="2"/>
</g>
<defs>
<clipPath id="clip0_1114_17116">
<rect width="32" height="32" fill="white"/>
</clipPath>
</defs>
</svg>
