<svg width="32" height="32" viewBox="0 0 32 32" fill="none" xmlns="http://www.w3.org/2000/svg">
<g clip-path="url(#clip0_2031_22532)">
<path d="M28 16C28 18.4759 27.2502 20.7767 25.9652 22.6876C23.8106 25.8918 20.1515 28 16 28C11.8485 28 8.18936 25.8918 6.03479 22.6876C4.74983 20.7767 4 18.4759 4 16C4 9.37258 9.37258 4 16 4C22.6274 4 28 9.37258 28 16Z" fill="#DCCCFF" stroke="#DCCCFF" stroke-width="2.28571"/>
<path d="M18.6683 12.0007C18.6683 13.4734 17.4744 14.6673 16.0016 14.6673C14.5289 14.6673 13.335 13.4734 13.335 12.0007C13.335 10.5279 14.5289 9.33398 16.0016 9.33398C17.4744 9.33398 18.6683 10.5279 18.6683 12.0007Z" fill="#662AE6" stroke="#662AE6" stroke-width="2"/>
<path d="M20.0004 20H12.0004C9.58471 20 7.54414 21.606 6.88818 23.8086C9.08901 26.3744 12.3549 28 16.0004 28C19.6459 28 22.9117 26.3744 25.1126 23.8086C24.4566 21.606 22.416 20 20.0004 20Z" fill="#662AE6" stroke="#662AE6" stroke-width="2"/>
</g>
<defs>
<clipPath id="clip0_2031_22532">
<rect width="32" height="32" fill="white"/>
</clipPath>
</defs>
</svg>
