<svg width="80" height="80" viewBox="0 0 80 80" fill="none" xmlns="http://www.w3.org/2000/svg">
<path d="M58.3333 40C57.0072 40 55.7355 39.4732 54.7978 38.5355C53.8601 37.5979 53.3333 36.3261 53.3333 35C53.3333 33.6739 53.8601 32.4021 54.7978 31.4645C55.7355 30.5268 57.0072 30 58.3333 30C59.6594 30 60.9312 30.5268 61.8689 31.4645C62.8065 32.4021 63.3333 33.6739 63.3333 35C63.3333 36.3261 62.8065 37.5979 61.8689 38.5355C60.9312 39.4732 59.6594 40 58.3333 40ZM48.3333 26.6667C47.0073 26.6667 45.7355 26.1399 44.7978 25.2022C43.8601 24.2645 43.3333 22.9927 43.3333 21.6667C43.3333 20.3406 43.8601 19.0688 44.7978 18.1311C45.7355 17.1934 47.0073 16.6667 48.3333 16.6667C49.6594 16.6667 50.9312 17.1934 51.8689 18.1311C52.8065 19.0688 53.3333 20.3406 53.3333 21.6667C53.3333 22.9927 52.8065 24.2645 51.8689 25.2022C50.9312 26.1399 49.6594 26.6667 48.3333 26.6667ZM31.6667 26.6667C30.3406 26.6667 29.0688 26.1399 28.1311 25.2022C27.1934 24.2645 26.6667 22.9927 26.6667 21.6667C26.6667 20.3406 27.1934 19.0688 28.1311 18.1311C29.0688 17.1934 30.3406 16.6667 31.6667 16.6667C32.9927 16.6667 34.2645 17.1934 35.2022 18.1311C36.1399 19.0688 36.6667 20.3406 36.6667 21.6667C36.6667 22.9927 36.1399 24.2645 35.2022 25.2022C34.2645 26.1399 32.9927 26.6667 31.6667 26.6667ZM21.6667 40C20.3406 40 19.0688 39.4732 18.1311 38.5355C17.1934 37.5979 16.6667 36.3261 16.6667 35C16.6667 33.6739 17.1934 32.4021 18.1311 31.4645C19.0688 30.5268 20.3406 30 21.6667 30C22.9927 30 24.2645 30.5268 25.2022 31.4645C26.1399 32.4021 26.6667 33.6739 26.6667 35C26.6667 36.3261 26.1399 37.5979 25.2022 38.5355C24.2645 39.4732 22.9927 40 21.6667 40ZM40 10C32.0435 10 24.4129 13.1607 18.7868 18.7868C13.1607 24.4129 10 32.0435 10 40C10 47.9565 13.1607 55.5871 18.7868 61.2132C24.4129 66.8393 32.0435 70 40 70C41.3261 70 42.5979 69.4732 43.5355 68.5355C44.4732 67.5978 45 66.3261 45 65C45 63.7 44.5 62.5333 43.7 61.6667C42.9333 60.7667 42.4333 59.6 42.4333 58.3333C42.4333 57.0072 42.9601 55.7355 43.8978 54.7978C44.8355 53.8601 46.1073 53.3333 47.4333 53.3333H53.3333C57.7536 53.3333 61.9928 51.5774 65.1184 48.4518C68.2441 45.3262 70 41.0869 70 36.6667C70 21.9333 56.5667 10 40 10Z" fill="currentColor"/>
</svg>
