<svg width="101" height="32" viewBox="0 0 101 32" fill="none" xmlns="http://www.w3.org/2000/svg">
<path d="M76.6621 21.3115C76.5889 23.2057 76.0334 24.9891 75.0947 26.6025C74.2314 28.0879 73.0461 29.3032 71.5469 30.1396C69.6847 31.1792 67.646 31.5804 65.5283 31.4531C62.7797 31.2878 60.2366 30.0652 58.3906 28.0146C57.8689 27.436 57.41 26.8098 56.9727 26.1504L56.9658 26.1406L56.9727 26.1318L59.6699 22.1943L59.6689 22.1914L59.6748 22.1826L60.082 21.6162L60.1084 21.5801L60.1133 21.624C60.4426 24.5141 62.7391 26.6469 65.5811 26.8857C67.0353 27.0083 68.4494 26.5975 69.6328 25.7461C70.3809 25.2068 70.9504 24.4742 71.3525 23.6484L71.4854 23.3398C72.3946 21.2172 72.0905 18.7925 70.6455 16.9736C69.7849 15.8904 68.5513 15.1621 67.2139 14.8584C66.7126 14.7453 66.2526 14.7182 65.7441 14.7451C64.03 14.8375 62.1855 15.7751 61.1035 17.1201L60.8975 17.3945L59.3877 19.5537L55.8662 24.7363L54.3066 27.0117C53.7305 27.8521 53.0277 28.5612 52.2559 29.2207C51.562 29.8129 50.8226 30.2819 49.9961 30.6641C46.6627 32.2058 43.0487 31.2384 40.6885 28.4824C39.2502 26.8028 38.4115 24.5878 38.3193 22.3623V13.7168L34.3809 13.7197H34.3633V13.7031L34.3545 9.26172V9.24512H34.3711L38.3203 9.23828L38.3193 2.51855V2.50195H43.0645V9.23633H50.0039L52.5957 9.24316H52.6123V13.7188H43.0645L43.0674 22.3262C43.0674 22.7613 43.1335 23.146 43.2119 23.5625L43.2842 23.8213C43.4703 24.4165 43.7747 24.9494 44.1992 25.4199C45.0235 26.333 46.2616 26.7729 47.4746 26.54C48.6683 26.3111 49.5667 25.4711 50.2529 24.4824L51.916 22.084L56.2314 15.7646C56.7729 14.9729 57.3473 14.2278 58.0137 13.5479C59.7564 11.7673 62.0177 10.6329 64.4883 10.332C67.0162 10.0235 69.4488 10.523 71.5 11.9941L71.9053 12.3018L71.9111 12.3066H71.9092C71.9164 12.3212 71.9278 12.3228 71.9326 12.3213C71.9348 12.3205 71.9379 12.3192 71.9395 12.3154C71.9411 12.3109 71.9415 12.3023 71.9385 12.29L71.9375 12.2861H71.9385V2.50098H76.6621V21.3115ZM31.2031 31.458H26.3887V9.31641H31.2031V31.458ZM21.5371 31.3887H16.7129L16.7197 28.9863C15.7021 29.9241 13.6736 31.2559 10.376 31.2559C4.46134 31.2558 0 26.5438 0 20.2949C0.000132239 14.0462 4.46007 9.33502 10.376 9.33496C13.6748 9.33496 15.7021 10.6671 16.7197 11.6035L16.7119 0.0478516H21.5371V31.3887ZM101 31.3203H96.4053V28.8135L96.376 28.8438C95.4547 29.769 93.3797 31.3203 89.8184 31.3203C83.9016 31.3203 79.4405 26.6022 79.4404 20.3477C79.4405 14.0931 83.9016 9.37598 89.8184 9.37598C93.3799 9.37601 95.4548 10.9263 96.376 11.8516L96.4053 11.8818V9.37598H101V31.3203ZM90.1318 13.5527C88.3159 13.5528 86.7749 14.2514 85.6875 15.4492C84.6 16.6472 83.9649 18.346 83.9648 20.3477C83.9649 22.3493 84.5889 24.0481 85.6709 25.2461C86.7529 26.4438 88.2942 27.1425 90.1318 27.1426C93.806 27.1426 96.4735 24.2865 96.4736 20.3477C96.4736 16.4089 93.7628 13.5527 90.1318 13.5527ZM10.6074 13.7441C7.11637 13.7442 4.67688 16.4386 4.67676 20.2949C4.67676 24.1514 7.07028 26.8457 10.6074 26.8457C14.1446 26.8457 16.7119 24.0906 16.7119 20.2949C16.7118 16.4994 14.0985 13.7441 10.6074 13.7441ZM28.7773 0C30.5119 0.000136054 31.8192 1.29068 31.8193 3.00488C31.8193 4.71926 30.512 6.01158 28.7773 6.01172C27.0642 6.01172 25.7715 4.71799 25.7715 3.00488C25.7717 1.29194 27.0427 0 28.7773 0Z" fill="white"/>
</svg>
